{"title":"BRIGHTON ROCK 720p BRRip [MKV AC3][RoB]PR3DATOR RG","uid":6481472,"size":2286544365,"categoryP":"video","categoryS":"hd___movies","magnet":"?xt=urn:btih:768d35222fc57fe9ab35d603a5806a88fc74e8e5&amp;dn=BRIGHTON+ROCK+720p+BRRip+%5BMKV+AC3%5D%5BRoB%5DPR3DATOR+RG&amp;tr=udp%3A%2F%2Ftracker.openbittorrent.com%3A80&amp;tr=udp%3A%2F%2Fopen.demonii.com%3A1337&amp;tr=udp%3A%2F%2Ftracker.coppersurfer.tk%3A6969&amp;tr=udp%3A%2F%2Fexodus.desync.com%3A6969","seeders":0,"leechers":1,"uploader":"TPBAgri","files":-1,"time":1308535517,"description":"\nCharts the headlong fall of Pinkie, a razor-wielding disadvantaged teenager with a religious death wish.\n\n\n\nDirector: Rowan Joffe\nWriters: Graham Greene (novel), Rowan Joffe (screenplay)\nStars: Helen Mirren, John Hurt and Andy Serkis\n\n\n\nSAMPLE INCLUDED\n\nGeneral\nComplete name : F:BRIGHTON ROCK 720p BRRip [MKV AC3][RoB]PR3DATOR RG\nFormat : Matroska\nFile size : 2.03 GiB\nDuration : 1h 51mn\nOverall bit rate : 2 618 Kbps\nWriting application : Lavf52.13.0\nWriting library : Lavf52.13.0\n\nVideo\nID : 1\nFormat : MPEG-4 Visual\nFormat profile : Simple@L1\nFormat settings, BVOP : No\nFormat settings, QPel : No\nFormat settings, GMC : No warppoints\nFormat settings, Matrix : Default (H.263)\nCodec ID : V_MPEG4/ISO/ASP\nCodec ID/Info : Advanced Simple Profile\nDuration : 1h 51mn\nBit rate : 2 246 Kbps\nWidth : 1 024 pixels\nHeight : 576 pixels\nDisplay aspect ratio : 16:9\nFrame rate mode : Constant\nFrame rate : 25.000 fps\nColor space : YUV\nChroma subsampling : 4:2:0\nBit depth : 8 bits\nScan type : Progressive\nCompression mode : Lossy\nBits/(Pixel*Frame) : 0.152\nStream size : 1.74 GiB (86%)\nWriting library : Lavc51.54.0\nLanguage : English\n\nAudio\nID : 2\nFormat : AC-3\nFormat/Info : Audio Coding 3\nMode extension : CM (complete main)\nCodec ID : A_AC3\nDuration : 1h 51mn\nBit rate mode : Constant\nBit rate : 320 Kbps\nChannel(s) : 6 channels\nChannel positions : Front: L C R, Side: L R, LFE\nSampling rate : 48.0 KHz\nBit depth : 16 bits\nCompression mode : Lossy\nStream size : 255 MiB (12%)\nLanguage : English\n\n &lt;a href=&quot;\nhttp://img43.imageshack.us/img43/411/bscap0000qy.jpg&quot; rel=&quot;nofollow&quot; target=&quot;_NEW&quot;&gt;\nhttp://img43.imageshack.us/img43/411/bscap0000qy.jpg&lt;/a&gt;\n &lt;a href=&quot;\nhttp://img819.imageshack.us/img819/3783/bscap0001fxp.jpg&quot; rel=&quot;nofollow&quot; target=&quot;_NEW&quot;&gt;\nhttp://img819.imageshack.us/img819/3783/bscap0001fxp.jpg&lt;/a&gt;\n &lt;a href=&quot;\nhttp://img854.imageshack.us/img854/3037/bscap0002hx.jpg&quot; rel=&quot;nofollow&quot; target=&quot;_NEW&quot;&gt;\nhttp://img854.imageshack.us/img854/3037/bscap0002hx.jpg&lt;/a&gt;\n &lt;a href=&quot;\nhttp://img860.imageshack.us/img860/9831/bscap0003x.jpg&quot; rel=&quot;nofollow&quot; target=&quot;_NEW&quot;&gt;\nhttp://img860.imageshack.us/img860/9831/bscap0003x.jpg&lt;/a&gt;\n &lt;a href=&quot;\nhttp://img6.imageshack.us/img6/8494/bscap0004hzf.jpg&quot; rel=&quot;nofollow&quot; target=&quot;_NEW&quot;&gt;\nhttp://img6.imageshack.us/img6/8494/bscap0004hzf.jpg&lt;/a&gt;","torrent":{"xt":"urn:btih:768d35222fc57fe9ab35d603a5806a88fc74e8e5","amp;dn":"BRIGHTON+ROCK+720p+BRRip+%5BMKV+AC3%5D%5BRoB%5DPR3DATOR+RG","amp;tr":["udp%3A%2F%2Ftracker.openbittorrent.com%3A80","udp%3A%2F%2Fopen.demonii.com%3A1337","udp%3A%2F%2Ftracker.coppersurfer.tk%3A6969","udp%3A%2F%2Fexodus.desync.com%3A6969"],"infoHash":"768d35222fc57fe9ab35d603a5806a88fc74e8e5","infoHashBuffer":{"type":"Buffer","data":[118,141,53,34,47,197,127,233,171,53,214,3,165,128,106,136,252,116,232,229]},"announce":[],"urlList":[]}}